Coordinates
version=1
nRows=42
nColumns=38
inDegrees=no

Units are S.I. units (second, meters, Newtons, ...)
If the header above contains a line with 'inDegrees', this indicates whether rotational values are in degrees (yes) or radians (no).

endheader
time	pelvis_tilt	pelvis_list	pelvis_rotation	pelvis_tx	pelvis_ty	pelvis_tz	hip_flexion_r	hip_adduction_r	hip_rotation_r	knee_angle_r	ankle_angle_r	subtalar_angle_r	mtp_angle_r	hip_flexion_l	hip_adduction_l	hip_rotation_l	knee_angle_l	ankle_angle_l	subtalar_angle_l	mtp_angle_l	lumbar_extension	lumbar_bending	lumbar_rotation	arm_flex_r	arm_add_r	arm_rot_r	elbow_flex_r	pro_sup_r	wrist_flex_r	wrist_dev_r	arm_flex_l	arm_add_l	arm_rot_l	elbow_flex_l	pro_sup_l	wrist_flex_l	wrist_dev_l
0.55	2.31934	1.49678	-0.735498	0.675664	0.889307	1.03236	-0.219539	0.154247	0.0336636	0	-0.203303	0	0	0.439761	-0.187311	-0.303364	0.964867	-0.0645058	0	0	-0.23968	0.183433	0.173127	-0.264533	-0.378631	0.218991	0.574349	1.03044	0	0	0.0154609	-0.349511	0.910508	0.437092	1.16934	0	0
0.56	2.29373	1.49783	-0.716509	0.676316	0.899272	1.03088	-0.232345	0.152594	0.0355737	0	-0.213214	0	0	0.438796	-0.183531	-0.323577	0.913441	-0.0544415	0	0	-0.241585	0.182278	0.175317	-0.262943	-0.381174	0.216806	0.578792	1.03702	0	0	0.00534033	-0.34149	0.910776	0.425789	1.15927	0	0
0.57	1.99883	1.51239	-0.427515	0.676838	0.909169	1.02765	-0.215899	0.148457	0.0425888	0	-0.0896558	0	0	0.458453	-0.160987	-0.304487	0.845205	-0.0384353	0	0	-0.220438	0.179093	0.135692	-0.232383	-0.386484	0.241749	0.573935	0.994992	0	0	-0.054353	-0.316041	0.739245	0.414495	1.18513	0	0
0.58	2.05478	1.51096	-0.484337	0.677066	0.919034	1.02643	-0.23622	0.147366	0.0390939	0	-0.124467	0	0	0.450217	-0.148154	-0.300629	0.788178	-0.0330699	0	0	-0.228002	0.176962	0.140788	-0.229451	-0.389425	0.255994	0.571607	1.01559	0	0	-0.0509989	-0.312768	0.772807	0.401281	1.20311	0	0
0.59	2.01207	1.51513	-0.442664	0.677294	0.928815	1.02467	-0.245006	0.143247	0.0349861	0	-0.153696	0	0	0.443536	-0.122234	-0.271237	0.713515	-0.0266912	0	0	-0.226248	0.172798	0.141503	-0.2266	-0.389433	0.260731	0.569165	1.03101	0	0	-0.0515449	-0.304357	0.790731	0.381933	1.2071	0	0
0.6	1.93874	1.51794	-0.371245	0.677517	0.939155	1.02251	-0.252865	0.140518	0.0302089	0	-0.16959	0	0	0.444822	-0.110458	-0.268014	0.663713	-0.0222672	0	0	-0.221921	0.170586	0.140622	-0.225645	-0.38921	0.260982	0.568938	1.04039	0	0	-0.0572195	-0.295073	0.796629	0.364982	1.20514	0	0
0.61	1.86792	1.52034	-0.304854	0.677868	0.949607	1.02032	-0.260192	0.136966	0.0264122	0	-0.179975	0	0	0.446463	-0.101985	-0.274614	0.624022	-0.0175073	0	0	-0.217871	0.168237	0.141047	-0.225098	-0.389157	0.259904	0.569878	1.04858	0	0	-0.0639347	-0.28502	0.79817	0.348215	1.20053	0	0
0.62	1.7622	1.52421	-0.205507	0.678347	0.960324	1.01811	-0.26441	0.130925	0.0279833	0	-0.11	0	0	0.44723	-0.0917227	-0.280887	0.582862	-0.0142837	0	0	-0.211662	0.164062	0.133479	-0.216302	-0.392938	0.279245	0.569364	1.02238	0	0	-0.0802561	-0.264456	0.735629	0.321821	1.2275	0	0
0.63	1.5493	1.52609	-0.0033924	0.679309	0.971082	1.01521	-0.261404	0.125394	0.038046	0	-0.0565843	0	0	0.458352	-0.0913758	-0.305179	0.566615	-0.011941	0	0	-0.204112	0.160125	0.137781	-0.22139	-0.39179	0.260845	0.581494	0.990307	0	0	-0.0972135	-0.253482	0.688943	0.318192	1.20566	0	0
0.64	1.68169	1.52645	-0.137528	0.679671	0.982207	1.01391	-0.282445	0.122904	0.034106	0	-0.0920449	0	0	0.450299	-0.0833603	-0.304286	0.548479	-0.0022125	0	0	-0.207224	0.156672	0.140763	-0.217436	-0.390622	0.278491	0.571594	1.01473	0	0	-0.0966585	-0.25116	0.722581	0.304539	1.2222	0	0
0.65	1.7657	1.52758	-0.227533	0.680429	0.993372	1.01253	-0.297089	0.118339	0.0345854	0	-0.117642	0	0	0.443816	-0.0769896	-0.307971	0.533022	0.00407418	0	0	-0.209061	0.151603	0.146729	-0.216349	-0.388179	0.284969	0.566661	1.03054	0	0	-0.0985513	-0.247008	0.740749	0.292368	1.22539	0	0
0.66	1.85932	1.52819	-0.32799	0.681332	1.00466	1.01126	-0.31133	0.113614	0.0379814	0	-0.135658	0	0	0.437655	-0.0717501	-0.310492	0.524383	0.00656456	0	0	-0.211184	0.146552	0.153457	-0.216649	-0.384709	0.28603	0.563422	1.04173	0	0	-0.101149	-0.24245	0.752748	0.281036	1.22285	0	0
0.67	1.97576	1.52748	-0.451393	0.682213	1.01613	1.01019	-0.326902	0.108807	0.0423086	0	-0.148558	0	0	0.430749	-0.0674103	-0.311861	0.523023	0.00610116	0	0	-0.214404	0.141068	0.161225	-0.217222	-0.380025	0.28497	0.559322	1.04995	0	0	-0.103888	-0.238852	0.763742	0.271576	1.21981	0	0
0.68	2.01573	1.52713	-0.501866	0.683316	1.02787	1.00886	-0.337567	0.102977	0.0550516	0	-0.0508199	0	0	0.429897	-0.069085	-0.32767	0.537653	-0.00491698	0	0	-0.217045	0.13567	0.167187	-0.217095	-0.37878	0.285975	0.563042	1.00302	0	0	-0.115089	-0.22709	0.70064	0.260981	1.24028	0	0
0.69	2.18287	1.52381	-0.674367	0.683995	1.03983	1.00829	-0.355916	0.097757	0.0547689	0	-0.0846137	0	0	0.417885	-0.0621824	-0.319673	0.544251	-0.00506945	0	0	-0.222329	0.130101	0.17417	-0.215996	-0.374807	0.295277	0.555253	1.0208	0	0	-0.115039	-0.227578	0.729867	0.253291	1.24839	0	0
0.7	2.29619	1.52108	-0.79517	0.684896	1.05195	1.00761	-0.366366	0.0913849	0.0570185	0	-0.111846	0	0	0.408327	-0.0573611	-0.316274	0.557393	-0.00870723	0	0	-0.225822	0.12402	0.183928	-0.217355	-0.369826	0.297268	0.549548	1.03255	0	0	-0.115552	-0.227214	0.748653	0.246438	1.24753	0	0
0.71	2.43113	1.51458	-0.938369	0.685997	1.06434	1.00728	-0.381884	0.0852387	0.0626495	0	-0.206538	0	0	0.394701	-0.056036	-0.31975	0.57785	-0.0135554	0	0	-0.226891	0.121178	0.219723	-0.248432	-0.348123	0.214893	0.551185	1.11565	0	0	-0.0941873	-0.240966	0.950231	0.245236	1.06972	0	0
0.72	2.47477	1.51088	-0.989995	0.687098	1.07718	1.00669	-0.390411	0.0806725	0.0712503	0	-0.211118	0	0	0.385004	-0.0549667	-0.316261	0.597467	-0.0139645	0	0	-0.227407	0.116038	0.226159	-0.245028	-0.342596	0.22354	0.538964	1.11624	0	0	-0.0997495	-0.240661	0.947747	0.241262	1.06992	0	0
0.73	2.50103	1.50799	-1.02294	0.688055	1.09034	1.00605	-0.3933	0.0763769	0.0743903	0.0167667	-0.211215	0	0	0.37461	-0.0528776	-0.310395	0.610719	-0.0161158	0	0	-0.225617	0.112046	0.230811	-0.245331	-0.337502	0.226629	0.532027	1.11654	0	0	-0.105729	-0.2407	0.945197	0.237615	1.07028	0	0
0.74	2.55616	1.50518	-1.08455	0.688858	1.10349	1.00585	-0.386472	0.069554	0.0691233	0.0658242	-0.21061	0	0	0.362608	-0.0506281	-0.315848	0.61682	-0.0202623	0	0	-0.225063	0.105632	0.233623	-0.24202	-0.331983	0.234059	0.520866	1.11638	0	0	-0.111422	-0.240522	0.937431	0.233249	1.0736	0	0
0.75	2.6385	1.50415	-1.17205	0.689415	1.11635	1.00612	-0.369482	0.0599214	0.0603182	0.134538	-0.184569	0	0	0.35313	-0.0482543	-0.330919	0.615717	-0.0405611	0	0	-0.219604	0.097112	0.240007	-0.240732	-0.32506	0.242501	0.505955	1.1091	0	0	-0.109951	-0.2455	0.997097	0.230921	1.00576	0	0
0.76	2.71543	1.50567	-1.25204	0.689672	1.12887	1.00648	-0.341583	0.0488067	0.0542373	0.219119	-0.169321	0	0	0.348955	-0.0474527	-0.340507	0.614807	-0.0744732	0	0	-0.214931	0.0866604	0.237339	-0.233619	-0.318678	0.254591	0.49198	1.10439	0	0	-0.113488	-0.246135	0.994192	0.225892	0.998804	0	0
0.77	2.74705	1.51359	-1.28282	0.689584	1.14137	1.00628	-0.302581	0.0390819	0.058508	0.310499	-0.156038	0	0	0.354488	-0.0475598	-0.336656	0.620749	-0.103273	0	0	-0.201365	0.0782521	0.23082	-0.228216	-0.312092	0.265815	0.479124	1.09877	0	0	-0.117724	-0.246919	0.988462	0.220393	0.995147	0	0
0.78	2.74931	1.52521	-1.281	0.689191	1.15379	1.00572	-0.257534	0.0311285	0.0743309	0.404481	-0.15114	0	0	0.36657	-0.0477837	-0.331229	0.636364	-0.117024	0	0	-0.183644	0.0717432	0.221323	-0.224829	-0.306183	0.274744	0.469361	1.09474	0	0	-0.121806	-0.247875	0.978227	0.215289	0.998625	0	0
0.79	2.77149	1.53773	-1.29613	0.688612	1.16573	1.00514	-0.203882	0.0242969	0.0871735	0.511827	-0.153811	0	0	0.380345	-0.0446066	-0.325346	0.654779	-0.123841	0	0	-0.164299	0.0659179	0.209188	-0.222109	-0.301373	0.283269	0.462067	1.09132	0	0	-0.124094	-0.248937	0.95826	0.211344	1.01442	0	0
0.8	2.83862	1.55292	-1.35521	0.687868	1.17805	1.00422	-0.143868	0.0181394	0.0944054	0.620179	-0.166102	0	0	0.39484	-0.0377144	-0.318509	0.671763	-0.127314	0	0	-0.144308	0.0588405	0.200847	-0.226551	-0.290749	0.261083	0.456153	1.11958	0	0	-0.121288	-0.257961	1.01962	0.213982	0.951705	0	0
0.81	-2.80867	1.56407	-1.98097	0.687063	1.18992	1.00353	-0.0892717	0.0121528	0.0976652	0.713536	-0.202297	0	0	0.403409	-0.0280378	-0.312088	0.685064	-0.127875	0	0	-0.130008	0.0505986	0.184732	-0.225016	-0.285215	0.257852	0.453143	1.13348	0	0	-0.121487	-0.263582	1.01207	0.216433	0.960932	0	0
0.82	-1.47743	1.56072	2.98192	0.686179	1.20156	1.00309	-0.0408134	0.00626538	0.100371	0.794863	-0.24115	0	0	0.404721	-0.0175644	-0.309689	0.693909	-0.127057	0	0	-0.121956	0.0417643	0.168736	-0.222525	-0.287036	0.279631	0.456164	1.11168	0	0	-0.119061	-0.270666	1.00217	0.222048	0.976904	0	0
0.83	-1.05118	1.54913	2.56752	0.685158	1.21307	1.00236	0.0104116	-0.000401444	0.101582	0.871734	-0.287801	0	0	0.406335	-0.00546774	-0.308383	0.698912	-0.124145	0	0	-0.109186	0.0329586	0.153207	-0.224811	-0.28444	0.275227	0.460015	1.12416	0	0	-0.114858	-0.280344	1.01452	0.230449	0.972738	0	0
0.84	-0.960362	1.5376	2.48972	0.683953	1.22441	1.0018	0.0583731	-0.0074823	0.0997274	0.940714	-0.339523	0	0	0.404381	0.00664727	-0.309425	0.700282	-0.121841	0	0	-0.0992076	0.0245482	0.136926	-0.22896	-0.283233	0.267533	0.468715	1.13949	0	0	-0.109091	-0.290768	1.02448	0.240921	0.971886	0	0
0.85	-0.937763	1.52774	2.47895	0.682795	1.23534	1.00144	0.104883	-0.0134764	0.101296	1.00498	-0.395147	0	0	0.399827	0.0170868	-0.31424	0.700425	-0.119477	0	0	-0.0949669	0.0160506	0.117706	-0.231564	-0.281136	0.247888	0.481114	1.17476	0	0	-0.106454	-0.298757	0.986957	0.251858	1.01777	0	0
0.86	-0.949505	1.52087	2.50191	0.681739	1.24593	1.00143	0.147884	-0.016957	0.106351	1.06573	-0.414968	0	0	0.391997	0.0252244	-0.320969	0.701025	-0.117413	0	0	-0.0927562	0.00954472	0.107036	-0.239274	-0.283094	0.23748	0.499181	1.18439	0	0	-0.094679	-0.312094	1.00301	0.268227	1.01221	0	0
0.87	-0.964557	1.51696	2.52876	0.680678	1.25636	1.00175	0.187035	-0.0181709	0.109483	1.11921	-0.413376	0	0	0.381923	0.0313349	-0.325562	0.702461	-0.113933	0	0	-0.0932193	0.00553598	0.0968029	-0.247716	-0.285211	0.223419	0.518658	1.19651	0	0	-0.0809288	-0.325389	1.01685	0.285159	1.0102	0	0
0.88	-1.0006	1.51633	2.57729	0.67957	1.26662	1.00252	0.221717	-0.0182519	0.110547	1.16443	-0.402575	0	0	0.36858	0.0356919	-0.326497	0.703474	-0.10998	0	0	-0.0974092	0.00396353	0.086769	-0.255789	-0.287838	0.208785	0.538243	1.20795	0	0	-0.0649613	-0.338011	1.02839	0.301628	1.01128	0	0
0.89	-1.06373	1.51866	2.65375	0.678431	1.27676	1.00375	0.251744	-0.0171115	0.108945	1.20314	-0.388958	0	0	0.352132	0.03831	-0.321939	0.70299	-0.106726	0	0	-0.104995	0.00478409	0.0771726	-0.263337	-0.290151	0.192641	0.55653	1.21992	0	0	-0.0464673	-0.349817	1.03966	0.317081	1.01417	0	0
0.9	-1.10202	1.52153	2.7048	0.677333	1.28691	1.00511	0.282061	-0.0152751	0.106752	1.23663	-0.37088	0	0	0.336349	0.0394039	-0.313544	0.699522	-0.105478	0	0	-0.115275	0.00660512	0.0542173	-0.256333	-0.300121	0.211918	0.568996	1.2057	0	0	-0.046343	-0.354468	0.945466	0.330625	1.11444	0	0
0.91	-1.12339	1.52406	2.7384	0.676503	1.29692	1.00631	0.313497	-0.0136386	0.104931	1.26731	-0.337706	0	0	0.321871	0.0395952	-0.304237	0.694278	-0.105922	0	0	-0.116865	0.00912477	0.0552884	-0.270228	-0.293817	0.168822	0.581276	1.24334	0	0	-0.0172618	-0.372059	1.00994	0.350719	1.06816	0	0
0.92	-1.10003	1.52694	2.72578	0.675743	1.30701	1.00757	0.344607	-0.0116927	0.103003	1.28868	-0.325896	0	0	0.308958	0.037996	-0.296552	0.688147	-0.106659	0	0	-0.117446	0.0123317	0.0481915	-0.271005	-0.2975	0.171149	0.585438	1.23958	0	0	-0.000181646	-0.382817	1.00979	0.365328	1.07526	0	0
0.93	-1.0531	1.52986	2.68866	0.675062	1.31715	1.00877	0.375688	-0.00995928	0.101282	1.30541	-0.315074	0	0	0.296675	0.0356218	-0.29007	0.682834	-0.106172	0	0	-0.115922	0.0157671	0.0424282	-0.271236	-0.300983	0.17511	0.586723	1.23507	0	0	0.0167269	-0.39303	1.01019	0.379127	1.08402	0	0
0.94	-0.978165	1.53279	2.62268	0.674483	1.32725	1.00989	0.406493	-0.00783523	0.101485	1.31714	-0.30588	0	0	0.284772	0.0323608	-0.28516	0.678114	-0.104539	0	0	-0.113011	0.0194966	0.03762	-0.270897	-0.304302	0.180226	0.586102	1.22981	0	0	0.0333854	-0.402977	1.00859	0.393144	1.09145	0	0
0.95	-0.868243	1.53609	2.52173	0.673907	1.33732	1.01099	0.436092	-0.0060654	0.100498	1.32408	-0.298378	0	0	0.272776	0.0280561	-0.280752	0.673306	-0.10248	0	0	-0.109814	0.0243667	0.0331425	-0.270356	-0.307727	0.185957	0.584711	1.22372	0	0	0.0501038	-0.412226	1.00473	0.407043	1.09761	0	0
0.96	-0.736065	1.54021	2.39897	0.673268	1.34741	1.01219	0.462654	-0.00501024	0.0966683	1.32526	-0.293623	0	0	0.259373	0.0227279	-0.276795	0.667769	-0.101103	0	0	-0.107365	0.0306501	0.0285278	-0.269857	-0.311441	0.192264	0.583214	1.21664	0	0	0.0670619	-0.41973	0.998898	0.41898	1.10318	0	0
